<svg xmlns="http://www.w3.org/2000/svg" viewBox="0 0 100 116">
  <path d="M50 2 L94 12 V58 C94 84 76 102 50 114 C24 102 6 84 6 58 V12 Z" fill="#ffffff"/>
  <path d="M50 6 L90 15 V58 C90 81.5 74 98.5 50 109.5 C26 98.5 10 81.5 10 58 V15 Z" fill="#0f3d6e"/>
  <path d="M50 12 l2.2 4.6 5 .7 -3.6 3.5 .9 5 -4.5-2.4 -4.5 2.4 .9-5 -3.6-3.5 5-.7 Z" fill="#f5b942"/>
  <path d="M24 55 H76 V60 H24 Z" fill="#f5b942"/>
  <path d="M30 66 H70 V71 H30 Z" fill="#f5f5f5"/>
  <path d="M36 77 H64 V95 H36 Z" fill="#f5f5f5"/>
  <path d="M36 77 H64 V80 H36 Z" fill="#d32f2f"/>
  <path d="M42 83 H47 V95 H42 Z M53 83 H58 V95 H53 Z" fill="#08213c"/>
</svg>
